<svg version="1.1" id="Layer_1" xmlns="http://www.w3.org/2000/svg" xmlns:xlink="http://www.w3.org/1999/xlink" x="0px" y="0px"
	 width="100%" viewBox="0 0 512 512" enable-background="new 0 0 512 512" xml:space="preserve">
<path fill="#000000" opacity="1.000000" stroke="none" 
	d="
M360.000000,1.000000 
	C369.687561,1.000000 379.375122,1.000000 389.805542,1.204413 
	C392.546783,2.195215 394.495544,3.156991 396.551788,3.738788 
	C407.736755,6.903505 417.194183,13.193213 425.222443,21.196753 
	C439.962708,35.891621 446.729156,54.284863 446.193726,74.890671 
	C445.784119,90.656296 440.665466,105.200645 430.496948,117.606400 
	C429.025360,119.401787 428.356110,121.235062 428.357483,123.517792 
	C428.384613,169.514633 428.382935,215.511505 428.360840,261.508362 
	C428.359741,263.788116 428.861694,265.637482 430.713654,267.238800 
	C442.157104,277.133484 447.147675,289.365723 445.542114,304.720337 
	C443.478363,324.456787 428.877838,339.447113 409.442749,342.140564 
	C405.315460,342.712555 403.249115,344.255798 401.632599,347.704041 
	C396.750458,358.118408 390.786224,367.841187 383.666840,376.942505 
	C379.083191,382.802124 373.880859,388.101807 368.808868,393.659393 
	C371.005768,396.405701 373.686951,397.438965 376.049652,398.871613 
	C398.962433,412.765350 414.208923,432.468353 421.345428,458.374756 
	C425.114960,472.058533 424.279510,486.057861 424.408875,500.003845 
	C424.450867,504.528809 424.491028,508.978668 422.000000,513.000000 
	C312.645782,513.000000 203.291550,513.000000 93.233162,512.714111 
	C91.225426,510.352356 89.476837,508.572357 89.603302,505.756226 
	C90.139778,493.810242 88.877968,481.849182 90.522423,469.888733 
	C94.117744,443.739166 106.669052,422.925629 127.003540,406.429352 
	C132.655426,401.844299 139.285599,398.743896 145.250336,394.237030 
	C142.385635,389.425415 138.015015,386.485962 134.752274,382.560150 
	C125.571892,371.514038 117.765366,359.638855 111.821259,346.554321 
	C110.814468,344.338104 109.553131,342.605652 106.761047,342.398712 
	C86.623421,340.906219 69.970879,324.450073 68.305305,303.990509 
	C67.143677,289.721313 71.705109,278.203766 81.584282,268.692230 
	C84.606346,265.782623 85.684212,263.189545 85.676811,259.292694 
	C85.593941,215.660995 85.563553,172.028870 85.704674,128.397476 
	C85.721436,123.215668 84.615799,119.043884 81.459442,114.695724 
	C70.505058,99.605095 66.403290,82.693474 68.485451,63.969967 
	C70.433533,46.452091 77.787872,31.802179 90.244141,19.845600 
	C100.744820,9.766160 113.574272,3.596772 128.000000,1.000000 
	C135.687576,1.000000 143.375168,1.000000 151.867859,1.122164 
	C170.047379,4.133622 184.428360,12.398695 195.752899,25.786390 
	C198.077682,28.534697 199.339722,28.577644 201.428986,25.945232 
	C209.034424,16.362635 218.821640,9.835649 230.071213,5.178188 
	C233.379288,3.808607 237.366959,3.957721 240.000000,1.000000 
	C249.687561,1.000000 259.375122,1.000000 269.841492,1.124161 
	C287.270111,4.967127 301.736023,12.399303 312.581451,25.965300 
	C314.153992,27.932304 315.612549,29.037670 317.710999,26.449726 
	C328.724335,12.867359 343.226196,5.034858 360.000000,1.000000 
M93.109619,42.611355 
	C80.255928,63.975777 81.519249,89.182945 96.786331,107.434776 
	C100.587463,111.979027 102.176476,116.709503 102.145294,122.468033 
	C102.031578,143.467087 102.095474,164.467163 102.112045,185.466858 
	C102.117493,192.370575 102.371536,192.633118 109.035820,192.633453 
	C207.701080,192.638489 306.366364,192.637375 405.031616,192.630508 
	C411.515076,192.630051 411.843109,192.341919 411.854187,185.881424 
	C411.891052,164.381790 411.920593,142.881958 411.852631,121.382523 
	C411.836639,116.328270 413.309509,112.150063 416.600098,108.152794 
	C427.315094,95.136787 431.582336,80.232742 428.776337,63.416409 
	C424.927399,40.349712 407.018921,21.794439 384.328644,17.551382 
	C360.961578,13.181772 336.792572,24.385355 325.250488,44.939159 
	C322.909546,49.107868 321.230011,54.247780 315.232208,54.125290 
	C309.293793,54.004017 307.822723,48.730453 305.361908,44.660431 
	C294.381927,26.500063 277.958649,16.767656 257.042450,16.696821 
	C236.067139,16.625790 219.728271,26.528587 208.714645,44.605816 
	C206.139481,48.832554 204.560745,54.216393 198.362930,54.128033 
	C192.350525,54.042316 191.049362,48.584393 188.602966,44.565067 
	C177.454605,26.248678 160.856018,16.696791 139.731888,16.665682 
	C120.150063,16.636843 104.542564,25.589399 93.109619,42.611355 
M278.500183,238.398422 
	C229.857468,238.400513 181.214722,238.421829 132.572067,238.365540 
	C128.956680,238.361359 126.428535,238.881912 124.852470,242.889572 
	C108.197601,285.240021 113.080544,325.415680 139.821945,361.618500 
	C172.902237,406.402863 218.943436,423.939056 273.736115,418.657227 
	C311.119293,415.053619 342.781738,399.033203 367.155518,370.330444 
	C398.914581,332.930847 406.507935,290.758759 389.706421,244.400604 
	C388.130676,240.052826 385.839233,238.263107 380.949982,238.294388 
	C347.134552,238.510757 313.317078,238.402405 278.500183,238.398422 
M278.499817,497.626160 
	C300.160339,497.626709 321.822052,497.506500 343.480469,497.719910 
	C348.377380,497.768127 349.922211,496.051666 349.796448,491.313843 
	C349.544464,481.823608 349.623505,472.319336 349.793121,462.824951 
	C349.905731,456.522644 353.154205,452.780762 357.984131,452.788086 
	C362.547272,452.795013 365.587708,456.364502 366.113708,462.389832 
	C366.214844,463.548950 366.190826,464.720581 366.192200,465.886505 
	C366.202698,474.717285 366.297028,483.549408 366.167511,492.378235 
	C366.110962,496.235382 367.654510,497.744507 371.520233,497.667053 
	C379.681244,497.503632 387.848389,497.679596 396.012146,497.612793 
	C408.734711,497.508667 408.186432,499.535431 407.946716,485.462769 
	C407.333130,449.444519 390.207703,424.013977 358.032715,408.335907 
	C354.206299,406.471405 351.136749,406.763214 347.444946,409.184937 
	C317.529907,428.808380 284.470001,437.183990 248.869522,435.909729 
	C246.073502,435.809631 244.079590,436.782684 242.098938,438.390594 
	C232.917725,445.843964 223.764481,453.332764 214.510162,460.694427 
	C212.074188,462.632172 210.966003,464.873383 211.007767,467.972351 
	C211.108734,475.468781 211.012039,482.967651 211.035645,490.465393 
	C211.057129,497.286774 211.369202,497.612518 218.016678,497.618103 
	C237.844360,497.634705 257.672089,497.625305 278.499817,497.626160 
M183.455872,497.636139 
	C185.120911,497.635193 186.804749,497.472656 188.447449,497.663696 
	C193.306686,498.228760 194.995209,496.141327 194.755920,491.340637 
	C194.441360,485.029358 195.358398,478.603455 194.552856,472.381256 
	C193.003540,460.414368 197.320450,451.961975 207.391937,445.583099 
	C212.617737,442.273315 217.086578,437.768341 221.807541,433.877319 
	C220.710938,432.082611 219.499786,431.833282 218.418808,431.570312 
	C199.480026,426.963104 181.797638,419.463287 165.646622,408.517426 
	C162.678772,406.506073 160.080872,406.501648 156.830292,407.841949 
	C123.938248,421.404602 102.842003,456.633484 105.934013,492.877319 
	C106.247307,496.549622 107.940422,497.697388 111.387291,497.661560 
	C121.709625,497.554169 132.036102,497.502686 142.356216,497.690704 
	C146.562515,497.767303 147.901688,495.996277 147.851364,492.018005 
	C147.731323,482.529205 147.757065,473.034729 147.950607,463.547119 
	C148.090164,456.706116 151.111420,452.922150 155.993210,452.838379 
	C161.051193,452.751556 164.084076,456.791443 164.252579,463.854126 
	C164.276413,464.852661 164.260971,465.852142 164.260773,466.851196 
	C164.259079,475.343048 164.353378,483.836548 164.210617,492.326050 
	C164.146561,496.136078 165.565598,497.836304 169.485550,497.667206 
	C173.806519,497.480774 178.142075,497.631958 183.455872,497.636139 
M268.500244,208.435028 
	C220.529465,208.431717 172.558685,208.427872 124.587898,208.425705 
	C118.758118,208.425446 112.928322,208.427399 107.098564,208.442566 
	C105.235573,208.447418 103.394005,208.515274 102.439079,210.566101 
	C99.374748,217.147110 102.828552,222.636200 110.052589,222.636292 
	C207.993164,222.637558 305.933746,222.637390 403.874329,222.634827 
	C405.373016,222.634781 406.871948,222.610443 408.370361,222.578140 
	C409.614380,222.551315 410.904083,222.153336 411.243744,220.965866 
	C412.263306,217.401505 412.554565,213.589813 411.186005,210.212418 
	C410.040070,207.384415 406.798981,208.465683 404.418396,208.463394 
	C359.445709,208.420166 314.472992,208.433563 268.500244,208.435028 
M99.685829,292.435455 
	C99.310806,287.441376 100.386284,282.339081 99.187515,277.222809 
	C90.063034,280.607361 84.075310,290.557159 84.360016,301.061646 
	C84.617813,310.573181 92.026314,321.352844 99.893959,323.747742 
	C103.710251,324.909454 103.830162,322.939850 103.201698,320.083710 
	C101.267799,311.294800 100.042648,302.408478 99.685829,292.435455 
M418.739716,278.950409 
	C417.476318,278.366119 416.464478,276.841858 414.517761,277.989716 
	C414.447144,278.831848 414.271332,279.809662 414.297760,280.781921 
	C414.660034,294.110474 413.962708,307.337952 410.680115,320.333496 
	C410.353119,321.628143 410.021088,323.046997 411.412384,323.944794 
	C412.782806,324.829132 413.968079,323.797668 415.120514,323.254761 
	C432.520264,315.057800 434.699463,292.054962 418.739716,278.950409 
M105.920876,241.880539 
	C104.680527,240.394699 103.003456,239.240662 102.519821,242.055069 
	C101.945564,245.396729 101.400215,248.990417 103.648422,253.085266 
	C105.252945,249.137100 106.693481,246.060242 105.920876,241.880539 
z"/>
<path fill="#000000" opacity="1.000000" stroke="none" 
	d="
M324.833954,173.676971 
	C324.479004,170.632782 324.028656,167.988266 324.022980,165.342789 
	C323.971497,141.364151 323.975647,117.385284 324.032532,93.406647 
	C324.038788,90.760498 324.176636,88.043564 324.787567,85.487099 
	C325.639160,81.923622 328.034058,79.754051 331.910553,79.680008 
	C335.686676,79.607880 338.199249,81.387321 339.564331,84.906174 
	C340.310211,86.828926 340.303345,88.816689 340.303955,90.812668 
	C340.311554,116.456635 340.312286,142.100601 340.313232,167.744568 
	C340.313263,168.410553 340.316223,169.077530 340.283966,169.742386 
	C340.072266,174.101990 338.555725,177.614670 333.883179,178.706253 
	C329.678070,179.688675 326.866699,177.663788 324.833954,173.676971 
z"/>
<path fill="#000000" opacity="1.000000" stroke="none" 
	d="
M249.734497,173.734695 
	C248.859619,171.266327 248.753983,169.116562 248.754944,166.939056 
	C248.766022,141.791779 248.770035,116.644501 248.749008,91.497246 
	C248.747040,89.143768 248.885880,86.823502 249.774155,84.631203 
	C251.099365,81.360603 253.555862,79.629669 257.115875,79.692413 
	C260.649414,79.754692 263.094635,81.440361 264.295288,84.823624 
	C265.085938,87.051674 265.278412,89.348984 265.276398,91.701424 
	C265.254883,116.848679 265.266174,141.995956 265.254120,167.143234 
	C265.253479,168.471909 265.251190,169.821945 265.031128,171.125137 
	C264.367706,175.054153 262.409729,178.057220 258.277283,178.839310 
	C254.304001,179.591263 251.584183,177.629776 249.734497,173.734695 
z"/>
<path fill="#000000" opacity="1.000000" stroke="none" 
	d="
M173.666748,103.001518 
	C173.680786,97.843750 173.546829,93.179085 173.748764,88.529015 
	C173.986923,83.044853 176.830765,79.891609 181.320404,79.682503 
	C186.039200,79.462723 189.477234,82.077065 189.630829,87.615395 
	C190.400818,115.380943 190.392166,143.159714 189.647934,170.926239 
	C189.508667,176.122070 185.491089,179.382294 181.311447,179.026688 
	C176.920715,178.653107 173.802322,174.998444 173.749863,169.383057 
	C173.606873,154.078293 173.678986,138.771500 173.668930,123.465508 
	C173.664566,116.810699 173.667679,110.155891 173.666748,103.001518 
z"/>
<path fill="#000000" opacity="1.000000" stroke="none" 
	d="
M262.458008,302.041992 
	C281.006775,298.175415 294.649994,305.512177 305.406128,319.508362 
	C309.755981,325.168518 313.479126,331.217590 318.758850,336.244781 
	C325.079285,342.262939 323.215393,352.306427 315.118408,356.388092 
	C296.730591,365.657318 278.089813,369.726776 259.399811,356.988190 
	C257.331512,355.578461 255.740372,356.257782 253.937500,357.421722 
	C234.621628,369.892303 215.749466,365.536865 197.396790,355.329346 
	C190.395721,351.435455 189.483505,341.988556 195.277084,336.357300 
	C200.250046,331.523621 204.061966,325.947083 207.916870,320.321503 
	C215.051025,309.910431 224.829453,303.605621 237.230606,301.205200 
	C242.300415,300.223877 247.258331,300.556458 251.976166,302.325409 
	C255.504120,303.648193 258.720337,303.820709 262.458008,302.041992 
M213.945206,340.278809 
	C212.865891,344.749054 215.969849,346.315643 219.233032,347.239258 
	C230.196396,350.342285 240.239792,349.152191 248.818573,340.737793 
	C255.412552,334.270172 258.578308,334.432556 265.227692,340.813873 
	C274.034088,349.265259 287.600281,351.304840 298.580139,345.966614 
	C301.210907,344.687622 302.280731,343.140564 300.481720,340.542389 
	C296.975220,335.478210 293.873993,330.022858 289.730743,325.536957 
	C284.015778,319.349426 276.832550,315.416321 267.928955,317.263306 
	C261.696411,318.556183 252.078125,318.823608 246.261230,317.290771 
	C238.318542,315.197784 227.485107,320.240234 221.518433,328.873993 
	C219.057144,332.435425 216.706726,336.073486 213.945206,340.278809 
z"/>
<path fill="#000000" opacity="1.000000" stroke="none" 
	d="
M182.052353,280.785217 
	C182.247833,287.163788 182.469254,293.129059 182.333359,299.086151 
	C182.230072,303.614319 179.090561,306.773438 175.002243,307.037201 
	C171.217621,307.281372 167.222076,304.118317 166.919250,299.761292 
	C166.518372,293.993439 166.560623,288.159332 166.928101,282.386566 
	C167.154053,278.837067 169.358398,276.212494 173.135666,275.580902 
	C177.245636,274.893707 180.246933,276.474182 182.052353,280.785217 
z"/>
<path fill="#000000" opacity="1.000000" stroke="none" 
	d="
M347.366852,292.937012 
	C347.281799,295.747528 347.466919,298.124817 347.052032,300.392303 
	C346.323578,304.373535 342.413300,307.532684 338.842865,306.989227 
	C334.609406,306.344910 331.776276,303.954712 331.675385,299.374084 
	C331.554321,293.878265 331.483093,288.371521 331.694824,282.881287 
	C331.866913,278.417908 334.793915,275.640442 338.906067,275.464722 
	C343.212860,275.280670 346.665283,278.002075 347.163605,282.467468 
	C347.531342,285.762939 347.320129,289.123047 347.366852,292.937012 
z"/>
<path fill="#000000" opacity="1.000000" stroke="none" 
	d="
M243.279526,480.551025 
	C238.538300,483.386932 234.269348,483.095123 230.767990,479.376495 
	C227.786194,476.209656 227.226822,472.280151 229.401535,468.348572 
	C231.610092,464.355896 235.305710,463.223572 239.579590,463.818542 
	C243.228958,464.326630 245.391464,466.640839 246.592789,470.053345 
	C248.062943,474.229553 246.560089,477.461182 243.279526,480.551025 
z"/>
<path fill="#000000" opacity="1.000000" stroke="none" 
	d="
M316.530273,482.215881 
	C309.925995,482.303101 306.984131,480.440430 305.408722,475.527069 
	C304.059021,471.317627 305.569885,467.918793 308.811646,465.422058 
	C312.350739,462.696350 316.332306,462.889984 319.956390,465.328430 
	C326.424042,469.680084 324.789154,480.288574 316.530273,482.215881 
z"/>
</svg>