<?xml version="1.0" standalone="no"?>
<!DOCTYPE svg PUBLIC "-//W3C//DTD SVG 20010904//EN"
 "http://www.w3.org/TR/2001/REC-SVG-20010904/DTD/svg10.dtd">
<svg version="1.0" xmlns="http://www.w3.org/2000/svg"
 width="1080.000000pt" height="1080.000000pt" viewBox="0 0 1080.000000 1080.000000"
 preserveAspectRatio="xMidYMid meet">

<g transform="translate(0.000000,1080.000000) scale(0.100000,-0.100000)"
fill="#000000" stroke="none">
<path d="M5025 8310 c-956 -80 -1825 -564 -2400 -1335 -355 -475 -579 -1042
-651 -1640 -23 -192 -23 -589 0 -780 118 -974 624 -1828 1411 -2382 1076 -757
2499 -805 3624 -121 720 438 1252 1135 1487 1950 89 311 128 597 128 948 0
263 -15 418 -60 650 -171 886 -693 1668 -1447 2168 -403 267 -834 434 -1317
511 -247 40 -534 51 -775 31z m2695 -1425 l0 -305 -52 -26 -53 -26 -122 56
-122 55 -40 -20 c-22 -10 -45 -19 -51 -19 -6 0 -63 32 -128 71 -64 40 -161 98
-214 131 l-98 59 -61 -12 c-60 -12 -73 -20 -213 -136 -17 -14 -26 -12 -110 25
-50 22 -113 47 -139 56 -27 8 -69 30 -95 49 -26 19 -85 55 -131 81 l-84 46
-41 -23 c-22 -13 -59 -34 -81 -46 -22 -13 -44 -27 -49 -32 -6 -5 -16 -9 -24
-9 -18 0 -246 131 -417 239 -70 45 -131 81 -136 81 -5 0 -42 -17 -81 -39 -304
-162 -335 -181 -511 -313 -43 -32 -84 -58 -92 -58 -8 0 -76 30 -152 66 l-138
66 -73 -36 c-50 -25 -86 -36 -116 -36 -36 0 -52 -7 -86 -35 -23 -19 -48 -35
-56 -35 -9 0 -43 -19 -76 -42 -34 -23 -67 -41 -73 -41 -6 0 -41 23 -78 52
l-67 53 -146 -85 -146 -85 -56 26 -56 25 -60 -17 c-34 -10 -95 -27 -136 -39
l-75 -21 -78 54 -77 53 0 248 0 249 2445 0 2445 0 0 -305z m-2435 186 c15 -33
15 -45 5 -76 -7 -22 -10 -57 -6 -85 l6 -48 -72 -49 c-104 -69 -487 -358 -464
-350 29 11 296 171 424 254 62 40 117 73 122 73 4 0 11 -23 15 -52 7 -51 7
-51 -33 -85 -23 -19 -87 -98 -143 -176 -57 -78 -118 -161 -137 -185 -71 -87
-23 -47 86 73 163 178 261 275 279 275 9 0 39 -17 67 -38 93 -69 132 -92 152
-92 11 0 43 -6 70 -14 27 -8 105 -26 174 -42 69 -15 129 -31 133 -34 5 -4 -14
-52 -41 -107 l-50 -99 -109 -64 c-134 -80 -179 -110 -165 -110 11 0 271 104
304 121 9 5 41 59 70 119 29 61 57 110 63 110 5 0 51 -25 100 -55 50 -29 118
-70 153 -90 34 -20 62 -40 62 -45 0 -5 -24 -22 -53 -39 -33 -19 -59 -43 -69
-63 -9 -18 -31 -58 -49 -88 l-32 -55 39 34 c21 19 55 50 74 68 33 32 143 103
159 103 4 0 58 -16 120 -35 85 -28 153 -59 288 -137 l177 -100 64 5 c59 6 69
4 134 -29 78 -39 82 -39 201 -3 l68 21 59 -22 c32 -12 64 -20 70 -18 6 2 -38
47 -97 100 -59 53 -130 117 -158 142 -27 25 -97 76 -155 113 -58 36 -134 85
-170 108 -44 28 -81 44 -115 49 -27 3 -67 9 -88 12 -22 3 -54 20 -78 40 -37
31 -47 34 -106 34 l-66 0 -91 74 c-83 67 -207 158 -312 229 -40 27 -42 27 -86
13 -40 -14 -48 -14 -89 2 -63 25 -109 51 -109 62 0 5 29 25 65 45 l65 37 57
-33 c32 -18 90 -54 128 -79 39 -26 90 -52 115 -58 68 -17 221 -90 255 -122 28
-26 63 -47 174 -101 23 -11 73 -29 110 -39 36 -10 75 -22 85 -26 72 -28 -101
81 -269 170 -34 17 -55 35 -54 45 1 24 115 111 168 128 l46 15 200 -122 c110
-68 210 -129 222 -137 20 -12 69 -91 61 -98 -2 -1 -39 -31 -83 -65 -93 -73
-108 -87 -80 -72 11 5 65 31 120 57 97 45 101 46 152 36 32 -6 76 -27 118 -55
36 -26 71 -46 76 -46 6 0 33 -10 60 -21 l49 -21 0 -269 0 -269 -2445 0 -2445
0 0 384 0 384 43 10 c91 22 134 24 191 8 30 -9 57 -20 60 -25 3 -4 -59 -46
-139 -92 -79 -46 -142 -85 -140 -87 1 -2 173 83 380 188 208 105 383 190 390
188 6 -2 33 -27 58 -56 l47 -53 0 -85 c0 -84 -1 -86 -41 -142 -23 -31 -47 -62
-53 -68 -6 -5 -42 -43 -81 -83 -76 -79 -66 -79 55 4 56 38 94 56 137 65 32 6
81 18 110 26 46 14 56 14 85 0 18 -8 130 -56 248 -106 118 -50 261 -111 316
-135 99 -44 104 -45 208 -45 58 0 106 4 106 9 0 9 -22 57 -73 160 l-22 44
-125 39 c-69 22 -148 46 -177 54 -45 12 -124 46 -261 111 l-36 17 30 13 c16 6
46 12 67 13 50 0 124 47 380 239 180 134 368 264 400 277 8 3 68 34 133 70 66
35 124 64 130 64 6 0 19 -18 29 -39z m-1005 -249 c0 -32 -28 -83 -80 -148 -60
-72 -62 -77 -57 -120 l5 -44 -50 -15 -49 -14 -95 72 c-52 39 -94 74 -94 77 0
11 113 80 131 80 10 0 34 14 52 30 25 22 45 30 73 30 23 1 62 13 94 30 58 31
70 35 70 22z m3237 -313 c45 -22 89 -39 98 -39 9 0 33 9 55 20 22 11 42 20 45
20 3 0 5 -38 5 -85 0 -47 -4 -85 -10 -85 -15 0 -63 23 -95 45 -66 46 -225 168
-225 172 0 8 43 -9 127 -48z"/>
</g>
</svg>
